<svg width="20" height="20" viewBox="0 0 20 20" fill="none" xmlns="http://www.w3.org/2000/svg">
<path d="M5 5H17.5L16.25 12.5H6.25L5 5Z" stroke="#1E1A10" stroke-linecap="square"/>
<path d="M7.49996 16.6667C7.9602 16.6667 8.33329 16.2936 8.33329 15.8333C8.33329 15.3731 7.9602 15 7.49996 15C7.03972 15 6.66663 15.3731 6.66663 15.8333C6.66663 16.2936 7.03972 16.6667 7.49996 16.6667Z" stroke="#1E1A10" stroke-linecap="square"/>
<path d="M15 16.6667C15.4602 16.6667 15.8333 16.2936 15.8333 15.8333C15.8333 15.3731 15.4602 15 15 15C14.5397 15 14.1666 15.3731 14.1666 15.8333C14.1666 16.2936 14.5397 16.6667 15 16.6667Z" stroke="#1E1A10" stroke-linecap="square"/>
<path d="M5 5H2.5" stroke="#1E1A10" stroke-linecap="square"/>
</svg>
