<svg width="15" height="15" fill="none" xmlns="http://www.w3.org/2000/svg"><g clip-path="url(#clip0)" fill="#1E1A10"><path d="M5.116 7.363c1.243 0 2.257-.763 2.257-1.698 0-.935-1.011-1.698-2.257-1.698-1.246 0-2.256.763-2.256 1.698 0 .935 1.013 1.698 2.256 1.698zm0-2.793c.905 0 1.653.5 1.653 1.095 0 .594-.757 1.095-1.653 1.095s-1.653-.5-1.653-1.095c0-.594.757-1.098 1.653-1.098v.003z"/><path d="M14.682 8.803h-4.453v-3.14c0-2.064-2.296-3.744-5.128-3.744-2.833 0-5.129 1.68-5.129 3.743v3.71c0 1.901 1.946 3.47 4.453 3.708h.051c.208.018.42.033.634.033h9.572a.302.302 0 00.301-.301V9.104a.302.302 0 00-.301-.301zM5.116 2.525c2.488 0 4.525 1.409 4.525 3.14 0 1.732-2.024 3.14-4.525 3.14C2.615 8.806.59 7.398.59 5.666c0-1.731 2.04-3.14 4.525-3.14zM9.64 7.424v1.379H7.89a4.549 4.549 0 001.735-1.38h.015zm4.739 5.086h-.604v-1.527a.302.302 0 00-.603 0v1.53h-1.207v-.83a.302.302 0 00-.603 0v.83h-1.206v-.83a.302.302 0 00-.604 0v.83H8.346v-1.53a.302.302 0 00-.603 0v1.53H6.588v-.83a.302.302 0 00-.604 0v.83H4.778v-.83a.302.302 0 00-.604 0v.758C2.138 12.139.606 10.878.606 9.37V7.424c.863 1.18 2.561 1.982 4.525 1.982h9.249v3.104z"/></g><defs><clipPath id="clip0"><path fill="#fff" d="M0 0h15v15H0z"/></clipPath></defs></svg>