<svg width="20" height="20" viewBox="0 0 20 20" fill="none" xmlns="http://www.w3.org/2000/svg">
<path d="M4.58331 16.25C6.52776 15.4167 7.77776 14.7222 8.33331 14.1667C9.16665 13.3333 6.66665 13.3333 6.66665 9.16667C6.66665 6.38889 7.77776 5 9.99998 5C12.2222 5 13.3333 6.38889 13.3333 9.16667C13.3333 13.3333 10.8333 13.3333 11.6666 14.1667C12.2222 14.7222 13.4722 15.4167 15.4166 16.25" stroke="#1E1A10" stroke-linecap="round"/>
<path d="M10 18.3333C14.6024 18.3333 18.3334 14.6024 18.3334 9.99999C18.3334 5.39762 14.6024 1.66666 10 1.66666C5.39765 1.66666 1.66669 5.39762 1.66669 9.99999C1.66669 14.6024 5.39765 18.3333 10 18.3333Z" stroke="#1E1A10" stroke-linecap="square"/>
</svg>
