<svg width="99" height="26" fill="none" xmlns="http://www.w3.org/2000/svg"><path d="M20.047 5.11c1.354.885 2.448 2.067 3.281 3.546.834 1.469 1.25 3.271 1.25 5.406 0 1.876-.375 3.51-1.125 4.907-.74 1.385-1.724 2.52-2.953 3.406-1.25.885-2.672 1.547-4.266 1.984A19.06 19.06 0 0111.25 25H.078v-1.219c.333-.01.75-.041 1.25-.093.5-.053.833-.115 1-.188.375-.156.636-.365.781-.625.146-.27.22-.594.22-.969V6.188a2.17 2.17 0 00-.204-.954c-.135-.291-.401-.526-.797-.703a4.659 4.659 0 00-1.265-.36 19.875 19.875 0 00-1.016-.124V2.828h11.797c1.26 0 2.61.162 4.047.485 1.437.322 2.822.921 4.156 1.796zM16.859 21c.51-.833.88-1.823 1.11-2.969.24-1.156.36-2.484.36-3.984 0-1.469-.157-2.807-.47-4.016-.312-1.208-.77-2.24-1.375-3.094a6.276 6.276 0 00-2.265-1.984c-.896-.469-1.917-.703-3.063-.703-.364 0-.781.01-1.25.031-.458.01-.802.021-1.031.032V21.14c0 .375.047.708.14 1 .105.28.277.53.516.75.24.218.531.39.875.515.354.115.813.172 1.375.172 1.177 0 2.188-.219 3.031-.656A5.178 5.178 0 0016.86 21zm25.688-9.656a7.166 7.166 0 011.766 2.578c.406 1 .609 2.083.609 3.25a8.87 8.87 0 01-.61 3.281 7.09 7.09 0 01-1.75 2.625c-.822.781-1.807 1.38-2.953 1.797-1.135.417-2.437.625-3.906.625-1.27 0-2.443-.182-3.516-.547a8.261 8.261 0 01-2.828-1.64 7.456 7.456 0 01-1.875-2.579c-.458-1.03-.687-2.182-.687-3.453 0-1.25.198-2.36.594-3.328a7.563 7.563 0 011.812-2.61c.771-.728 1.719-1.29 2.844-1.687 1.135-.406 2.4-.61 3.797-.61 1.458 0 2.74.204 3.843.61 1.115.396 2.068.959 2.86 1.688zm-4 10.828c.229-.584.396-1.292.5-2.125.114-.834.172-1.802.172-2.906 0-.73-.052-1.563-.157-2.5-.104-.938-.26-1.678-.468-2.22-.25-.655-.6-1.171-1.047-1.546-.438-.375-.995-.563-1.672-.563-.74 0-1.333.204-1.781.61-.438.406-.776.932-1.016 1.578-.219.594-.37 1.292-.453 2.094a23.75 23.75 0 00-.125 2.484c0 1.136.036 2.078.11 2.828.072.74.25 1.485.53 2.235.24.646.584 1.156 1.032 1.53.448.376 1.016.563 1.703.563.625 0 1.161-.172 1.61-.515.447-.354.801-.87 1.062-1.547zM62.5 12.359a3.23 3.23 0 01-.734 2.094c-.49.594-1.136.89-1.938.89-.76 0-1.406-.192-1.937-.577-.521-.386-.782-.954-.782-1.704 0-.364.026-.645.078-.843.053-.209.1-.401.141-.578-.479.02-.984.187-1.516.5-.53.312-1 .729-1.406 1.25v8.578c0 .364.058.666.172.906.115.24.307.427.578.563.23.114.6.213 1.11.296.52.073.895.115 1.125.125V25H46.938v-1.14c.26-.021.52-.047.78-.079.272-.041.5-.093.688-.156.334-.115.563-.292.688-.531.125-.24.187-.552.187-.938v-9.093c0-.376-.088-.709-.265-1a2.268 2.268 0 00-.641-.72 2.57 2.57 0 00-.719-.312 4.847 4.847 0 00-.937-.172V9.72l7.453-.406.234.234v2.265h.063c.718-.833 1.479-1.484 2.281-1.953.813-.479 1.656-.718 2.531-.718.969 0 1.745.302 2.328.906.594.594.891 1.364.891 2.312zm16.656 0a3.23 3.23 0 01-.734 2.094c-.49.594-1.135.89-1.938.89-.76 0-1.406-.192-1.937-.577-.521-.386-.781-.954-.781-1.704 0-.364.026-.645.078-.843.052-.209.099-.401.14-.578-.479.02-.984.187-1.515.5-.531.312-1 .729-1.406 1.25v8.578c0 .364.057.666.171.906.115.24.308.427.579.563.229.114.599.213 1.109.296.52.073.896.115 1.125.125V25H63.594v-1.14c.26-.021.52-.047.781-.079.27-.041.5-.093.688-.156.333-.115.562-.292.687-.531.125-.24.188-.552.188-.938v-9.093c0-.376-.089-.709-.266-1a2.268 2.268 0 00-.64-.72 2.568 2.568 0 00-.72-.312 4.848 4.848 0 00-.937-.172V9.72l7.453-.406.234.234v2.265h.063c.719-.833 1.48-1.484 2.281-1.953.813-.479 1.656-.718 2.531-.718.97 0 1.745.302 2.329.906.593.594.89 1.364.89 2.312zM98.11 24.672c-.458.198-1 .38-1.625.547a7.676 7.676 0 01-1.984.25c-1.281 0-2.224-.188-2.828-.563a2.892 2.892 0 01-1.234-1.64h-.094a9.737 9.737 0 01-1.031.906c-.323.25-.672.463-1.047.64-.49.23-.964.396-1.422.5-.448.115-1.078.172-1.89.172-1.21 0-2.24-.354-3.095-1.062-.854-.719-1.28-1.667-1.28-2.844 0-.677.093-1.25.28-1.719.188-.479.454-.9.797-1.265.313-.334.672-.61 1.078-.828.417-.22.87-.422 1.36-.61a44.71 44.71 0 013.375-1.062c1.312-.375 2.27-.709 2.875-1v-1.5c0-.26-.021-.604-.063-1.031-.041-.428-.13-.787-.265-1.079a2.06 2.06 0 00-.688-.843c-.312-.23-.724-.344-1.234-.344-.459 0-.844.068-1.156.203a3.646 3.646 0 00-.735.39c.031.209.12.527.266.954.146.427.219.838.219 1.234 0 .177-.047.401-.141.672-.094.26-.23.469-.406.625-.24.208-.51.37-.813.484-.291.115-.745.172-1.36.172-.874 0-1.536-.208-1.984-.625-.447-.427-.671-.979-.671-1.656 0-.583.229-1.104.687-1.563a5.717 5.717 0 011.703-1.156c.656-.312 1.412-.552 2.266-.719a11.75 11.75 0 012.375-.265c1.01 0 1.937.062 2.781.187.844.115 1.604.36 2.281.735.646.364 1.156.896 1.531 1.594.386.687.579 1.588.579 2.703 0 1.177-.026 2.572-.079 4.187a157.606 157.606 0 00-.062 3.188c0 .468.068.838.203 1.109.146.27.365.474.656.61.178.083.454.135.829.156.385.01.734.015 1.046.015v1.14zm-7.765-8.14c-.584.197-1.162.426-1.735.687-.572.25-1.041.515-1.406.797a3.012 3.012 0 00-.906 1.125c-.219.448-.328.979-.328 1.593 0 .813.182 1.401.547 1.766.375.365.833.547 1.375.547.572 0 1.041-.115 1.406-.344a4.15 4.15 0 00.984-.875l.063-5.297zm2.812-14.345c0 .47-.11.85-.328 1.141-.208.281-.547.573-1.016.875-.51.333-1.317.807-2.421 1.422a102.066 102.066 0 00-3.75 2.172l-.657-.594a103.02 103.02 0 002.125-2.906c.5-.73.933-1.35 1.297-1.86.448-.635.875-1.062 1.281-1.28.407-.23.912-.345 1.516-.345.5 0 .948.136 1.344.407.406.27.61.593.61.968z" fill="#1E1A10"/></svg>